<?xml version="1.0" encoding="utf-8" standalone="yes"?>
<!DOCTYPE svg PUBLIC "-//W3C//DTD SVG 1.1//EN" "http://www.w3.org/Graphics/SVG/1.1/DTD/svg11.dtd">
<svg style="fill:none;stroke:none;fill-rule:evenodd;clip-rule:evenodd;stroke-linecap:round;stroke-linejoin:round;stroke-miterlimit:1.5;" version="1.1" xmlns="http://www.w3.org/2000/svg" xmlns:xlink="http://www.w3.org/1999/xlink" width="768" height="558" viewBox="0 0 768 558" xmlns:c2pa="http://c2pa.org/manifest"><metadata><c2pa:manifest>AAAxQ2p1bWIAAAAeanVtZGMycGEAEQAQgAAAqgA4m3EDYzJwYQAAADEdanVtYgAAAEdqdW1kYzJtYQARABCAAACqADibcQN1cm46YzJwYTo0ZTZiN2Q0OC0xYWQyLTQ4Y2YtYTI4YS1iMjQ5NGExMDczYjEAAAABzWp1bWIAAAApanVtZGMyYXMAEQAQgAAAqgA4m3EDYzJwYS5hc3NlcnRpb25zAAAAANdqdW1iAAAAQWp1bWRjYm9yABEAEIAAAKoAOJtxE2MycGEuYWN0aW9ucy52MgAAAAAYYzJzaBtyuJxHwch7NDkdsAViBmMAAACOY2JvcqFnYWN0aW9uc4GiZmFjdGlvbmxjMnBhLmNyZWF0ZWRxZGlnaXRhbFNvdXJjZVR5cGV4U2h0dHA6Ly9jdi5pcHRjLm9yZy9uZXdzY29kZXMvZGlnaXRhbHNvdXJjZXR5cGUvY29tcG9zaXRlV2l0aFRyYWluZWRBbGdvcml0aG1pY01lZGlhAAAAxWp1bWIAAABAanVtZGNib3IAEQAQgAAAqgA4m3ETYzJwYS5oYXNoLmRhdGEAAAAAGGMyc2gmaH4U20kUkOlUz0MEs+zMAAAAfWNib3KlamV4Y2x1c2lvbnOBomVzdGFydBkB7mZsZW5ndGgZQbBkbmFtZW5qdW1iZiBtYW5pZmVzdGNhbGdmc2hhMjU2ZGhhc2hYIEiI7so+lw9fEjeCw2sOmU9pWp8f+oYnqVfjnAboYpaQY3BhZEkAAAAAAAAAAAAAAAIIanVtYgAAACdqdW1kYzJjbAARABCAAACqADibcQNjMnBhLmNsYWltLnYyAAAAAdljYm9ypmppbnN0YW5jZUlEeCx4bXA6aWlkOmVmMzZkYzUzLWViMDktNDJmOC04ODgzLTIwN2FiNWEwMDFhOHRjbGFpbV9nZW5lcmF0b3JfaW5mb6NkbmFtZWlOYXBraW4gQUlndmVyc2lvbm5uYXBraW4tYzJwYS12MXdvcmcuY29udGVudGF1dGguYzJwYV9yc2YwLjkwLjFpc2lnbmF0dXJleE1zZWxmI2p1bWJmPS9jMnBhL3VybjpjMnBhOjRlNmI3ZDQ4LTFhZDItNDhjZi1hMjhhLWIyNDk0YTEwNzNiMS9jMnBhLnNpZ25hdHVyZXJjcmVhdGVkX2Fzc2VydGlvbnOBomN1cmx4KXNlbGYjanVtYmY9YzJwYS5hc3NlcnRpb25zL2MycGEuaGFzaC5kYXRhZGhhc2hYIDtoj66iUr6tvifqTvajfCwJdxY/NZ5naV4eEKugTFyAc2dhdGhlcmVkX2Fzc2VydGlvbnOBomN1cmx4KnNlbGYjanVtYmY9YzJwYS5hc3NlcnRpb25zL2MycGEuYWN0aW9ucy52MmRoYXNoWCD6N7azyrQ/wiKnvCRXcQOh9dqMiBMBTQVeki7O1HCRUGNhbGdmc2hhMjU2AAAs+Wp1bWIAAAAoanVtZGMyY3MAEQAQgAAAqgA4m3EDYzJwYS5zaWduYXR1cmUAAAAsyWNib3LShFkD7qIBJhghglkCDTCCAgkwggGvoAMCAQICFH7+C3CSZa4fg356eC1urd4+38FSMAoGCCqGSM49BAMCMEcxCzAJBgNVBAYTAlVTMRowGAYDVQQKDBFTZWNvbmQgTGF5ZXIgSW5jLjEcMBoGA1UEAwwTTmFwa2luIEFJIFByb2QgUm9vdDAeFw0yNjA5MDExNjQyMDdaFw0yOTA4MzExNjQzMDdaMEkxCzAJBgNVBAYTAlVTMRowGAYDVQQKDBFTZWNvbmQgTGF5ZXIgSW5jLjEeMBwGA1UEAwwVTmFwa2luIEFJIFByb2QgU2lnbmVyMFkwEwYHKoZIzj0CAQYIKoZIzj0DAQcDQgAEQ0cNUAX4l1JpGHxgYJ+H2dKazUKOmpOCGqsS9pzB5G8qVRH6mrSYHdRoOj00Vb/UrYWdfZBtVDuebnJgxusSg6N3MHUwDAYDVR0TAQH/BAIwADAOBgNVHQ8BAf8EBAMCBsAwFQYDVR0lBA4wDAYKKwYBBAGD6F4CATAdBgNVHQ4EFgQU6R0guh6qHPg2vBRcF3q9kCwETkIwHwYDVR0jBBgwFoAU2Th3XFG8TiUgnAsDLF+5t6beHrkwCgYIKoZIzj0EAwIDSAAwRQIhANf8hLJhHAepYLDePP9IKjtXcyTKhvXpJZ84anDlQYNeAiAyhhwkwhTU5VTnC0yflxKxxMfGoEkuTtDOjZifCEHJKlkB1TCCAdEwggF4oAMCAQICFAfJ7SwuBAUmyE3CHgPlAmeWDFQbMAoGCCqGSM49BAMCMEcxCzAJBgNVBAYTAlVTMRowGAYDVQQKDBFTZWNvbmQgTGF5ZXIgSW5jLjEcMBoGA1UEAwwTTmFwa2luIEFJIFByb2QgUm9vdDAeFw0yNjA5MDExNjQyMDdaFw0zMTA5MDExNjQzMDdaMEcxCzAJBgNVBAYTAlVTMRowGAYDVQQKDBFTZWNvbmQgTGF5ZXIgSW5jLjEcMBoGA1UEAwwTTmFwa2luIEFJIFByb2QgUm9vdDBZMBMGByqGSM49AgEGCCqGSM49AwEHA0IABJKhR6STBU6EBsfm23g4OyKVjNG3K2wtiKZx/852pVW7rCUNqXAwjENPg+EB4Oqnm8h3lFVtvWdxXp1o86P+w++jQjBAMA8GA1UdEwEB/wQFMAMBAf8wDgYDVR0PAQH/BAQDAgGGMB0GA1UdDgQWBBTZOHdcUbxOJSCcCwMsX7m3pt4euTAKBggqhkjOPQQDAgNHADBEAiBzIHJozt1AjzNDAwq/sZf/cBXlMbXrGVDU67FDoyp33gIgZvEPfdh1IrwfIF4pi7yrAAMoY/q7w8y6ggBXFboGjayhY3BhZFkogwAAAAAAAAAAAAAAAAAAAAAAAAAAAAAAAAAAAAAAAAAAAAAAAAAAAAAAAAAAAAAAAAAAAAAAAAAAAAAAAAAAAAAAAAAAAAAAAAAAAAAAAAAAAAAAAAAAAAAAAAAAAAAAAAAAAAAAAAAAAAAAAAAAAAAAAAAAAAAAAAAAAAAAAAAAAAAAAAAAAAAAAAAAAAAAAAAAAAAAAAAAAAAAAAAAAAAAAAAAAAAAAAAAAAAAAAAAAAAAAAAAAAAAAAAAAAAAAAAAAAAAAAAAAAAAAAAAAAAAAAAAAAAAAAAAAAAAAAAAAAAAAAAAAAAAAAAAAAAAAAAAAAAAAAAAAAAAAAAAAAAAAAAAAAAAAAAAAAAAAAAAAAAAAAAAAAAAAAAAAAAAAAAAAAAAAAAAAAAAAAAAAAAAAAAAAAAAAAAAAAAAAAAAAAAAAAAAAAAAAAAAAAAAAAAAAAAAAAAAAAAAAAAAAAAAAAAAAAAAAAAAAAAAAAAAAAAAAAAAAAAAAAAAAAAAAAAAAAAAAAAAAAAAAAAAAAAAAAAAAAAAAAAAAAAAAAAAAAAAAAAAAAAAAAAAAAAAAAAAAAAAAAAAAAAAAAAAAAAAAAAAAAAAAAAAAAAAAAAAAAAAAAAAAAAAAAAAAAAAAAAAAAAAAAAAAAAAAAAAAAAAAAAAAAAAAAAAAAAAAAAAAAAAAAAAAAAAAAAAAAAAAAAAAAAAAAAAAAAAAAAAAAAAAAAAAAAAAAAAAAAAAAAAAAAAAAAAAAAAAAAAAAAAAAAAAAAAAAAAAAAAAAAAAAAAAAAAAAAAAAAAAAAAAAAAAAAAAAAAAAAAAAAAAAAAAAAAAAAAAAAAAAAAAAAAAAAAAAAAAAAAAAAAAAAAAAAAAAAAAAAAAAAAAAAAAAAAAAAAAAAAAAAAAAAAAAAAAAAAAAAAAAAAAAAAAAAAAAAAAAAAAAAAAAAAAAAAAAAAAAAAAAAAAAAAAAAAAAAAAAAAAAAAAAAAAAAAAAAAAAAAAAAAAAAAAAAAAAAAAAAAAAAAAAAAAAAAAAAAAAAAAAAAAAAAAAAAAAAAAAAAAAAAAAAAAAAAAAAAAAAAAAAAAAAAAAAAAAAAAAAAAAAAAAAAAAAAAAAAAAAAAAAAAAAAAAAAAAAAAAAAAAAAAAAAAAAAAAAAAAAAAAAAAAAAAAAAAAAAAAAAAAAAAAAAAAAAAAAAAAAAAAAAAAAAAAAAAAAAAAAAAAAAAAAAAAAAAAAAAAAAAAAAAAAAAAAAAAAAAAAAAAAAAAAAAAAAAAAAAAAAAAAAAAAAAAAAAAAAAAAAAAAAAAAAAAAAAAAAAAAAAAAAAAAAAAAAAAAAAAAAAAAAAAAAAAAAAAAAAAAAAAAAAAAAAAAAAAAAAAAAAAAAAAAAAAAAAAAAAAAAAAAAAAAAAAAAAAAAAAAAAAAAAAAAAAAAAAAAAAAAAAAAAAAAAAAAAAAAAAAAAAAAAAAAAAAAAAAAAAAAAAAAAAAAAAAAAAAAAAAAAAAAAAAAAAAAAAAAAAAAAAAAAAAAAAAAAAAAAAAAAAAAAAAAAAAAAAAAAAAAAAAAAAAAAAAAAAAAAAAAAAAAAAAAAAAAAAAAAAAAAAAAAAAAAAAAAAAAAAAAAAAAAAAAAAAAAAAAAAAAAAAAAAAAAAAAAAAAAAAAAAAAAAAAAAAAAAAAAAAAAAAAAAAAAAAAAAAAAAAAAAAAAAAAAAAAAAAAAAAAAAAAAAAAAAAAAAAAAAAAAAAAAAAAAAAAAAAAAAAAAAAAAAAAAAAAAAAAAAAAAAAAAAAAAAAAAAAAAAAAAAAAAAAAAAAAAAAAAAAAAAAAAAAAAAAAAAAAAAAAAAAAAAAAAAAAAAAAAAAAAAAAAAAAAAAAAAAAAAAAAAAAAAAAAAAAAAAAAAAAAAAAAAAAAAAAAAAAAAAAAAAAAAAAAAAAAAAAAAAAAAAAAAAAAAAAAAAAAAAAAAAAAAAAAAAAAAAAAAAAAAAAAAAAAAAAAAAAAAAAAAAAAAAAAAAAAAAAAAAAAAAAAAAAAAAAAAAAAAAAAAAAAAAAAAAAAAAAAAAAAAAAAAAAAAAAAAAAAAAAAAAAAAAAAAAAAAAAAAAAAAAAAAAAAAAAAAAAAAAAAAAAAAAAAAAAAAAAAAAAAAAAAAAAAAAAAAAAAAAAAAAAAAAAAAAAAAAAAAAAAAAAAAAAAAAAAAAAAAAAAAAAAAAAAAAAAAAAAAAAAAAAAAAAAAAAAAAAAAAAAAAAAAAAAAAAAAAAAAAAAAAAAAAAAAAAAAAAAAAAAAAAAAAAAAAAAAAAAAAAAAAAAAAAAAAAAAAAAAAAAAAAAAAAAAAAAAAAAAAAAAAAAAAAAAAAAAAAAAAAAAAAAAAAAAAAAAAAAAAAAAAAAAAAAAAAAAAAAAAAAAAAAAAAAAAAAAAAAAAAAAAAAAAAAAAAAAAAAAAAAAAAAAAAAAAAAAAAAAAAAAAAAAAAAAAAAAAAAAAAAAAAAAAAAAAAAAAAAAAAAAAAAAAAAAAAAAAAAAAAAAAAAAAAAAAAAAAAAAAAAAAAAAAAAAAAAAAAAAAAAAAAAAAAAAAAAAAAAAAAAAAAAAAAAAAAAAAAAAAAAAAAAAAAAAAAAAAAAAAAAAAAAAAAAAAAAAAAAAAAAAAAAAAAAAAAAAAAAAAAAAAAAAAAAAAAAAAAAAAAAAAAAAAAAAAAAAAAAAAAAAAAAAAAAAAAAAAAAAAAAAAAAAAAAAAAAAAAAAAAAAAAAAAAAAAAAAAAAAAAAAAAAAAAAAAAAAAAAAAAAAAAAAAAAAAAAAAAAAAAAAAAAAAAAAAAAAAAAAAAAAAAAAAAAAAAAAAAAAAAAAAAAAAAAAAAAAAAAAAAAAAAAAAAAAAAAAAAAAAAAAAAAAAAAAAAAAAAAAAAAAAAAAAAAAAAAAAAAAAAAAAAAAAAAAAAAAAAAAAAAAAAAAAAAAAAAAAAAAAAAAAAAAAAAAAAAAAAAAAAAAAAAAAAAAAAAAAAAAAAAAAAAAAAAAAAAAAAAAAAAAAAAAAAAAAAAAAAAAAAAAAAAAAAAAAAAAAAAAAAAAAAAAAAAAAAAAAAAAAAAAAAAAAAAAAAAAAAAAAAAAAAAAAAAAAAAAAAAAAAAAAAAAAAAAAAAAAAAAAAAAAAAAAAAAAAAAAAAAAAAAAAAAAAAAAAAAAAAAAAAAAAAAAAAAAAAAAAAAAAAAAAAAAAAAAAAAAAAAAAAAAAAAAAAAAAAAAAAAAAAAAAAAAAAAAAAAAAAAAAAAAAAAAAAAAAAAAAAAAAAAAAAAAAAAAAAAAAAAAAAAAAAAAAAAAAAAAAAAAAAAAAAAAAAAAAAAAAAAAAAAAAAAAAAAAAAAAAAAAAAAAAAAAAAAAAAAAAAAAAAAAAAAAAAAAAAAAAAAAAAAAAAAAAAAAAAAAAAAAAAAAAAAAAAAAAAAAAAAAAAAAAAAAAAAAAAAAAAAAAAAAAAAAAAAAAAAAAAAAAAAAAAAAAAAAAAAAAAAAAAAAAAAAAAAAAAAAAAAAAAAAAAAAAAAAAAAAAAAAAAAAAAAAAAAAAAAAAAAAAAAAAAAAAAAAAAAAAAAAAAAAAAAAAAAAAAAAAAAAAAAAAAAAAAAAAAAAAAAAAAAAAAAAAAAAAAAAAAAAAAAAAAAAAAAAAAAAAAAAAAAAAAAAAAAAAAAAAAAAAAAAAAAAAAAAAAAAAAAAAAAAAAAAAAAAAAAAAAAAAAAAAAAAAAAAAAAAAAAAAAAAAAAAAAAAAAAAAAAAAAAAAAAAAAAAAAAAAAAAAAAAAAAAAAAAAAAAAAAAAAAAAAAAAAAAAAAAAAAAAAAAAAAAAAAAAAAAAAAAAAAAAAAAAAAAAAAAAAAAAAAAAAAAAAAAAAAAAAAAAAAAAAAAAAAAAAAAAAAAAAAAAAAAAAAAAAAAAAAAAAAAAAAAAAAAAAAAAAAAAAAAAAAAAAAAAAAAAAAAAAAAAAAAAAAAAAAAAAAAAAAAAAAAAAAAAAAAAAAAAAAAAAAAAAAAAAAAAAAAAAAAAAAAAAAAAAAAAAAAAAAAAAAAAAAAAAAAAAAAAAAAAAAAAAAAAAAAAAAAAAAAAAAAAAAAAAAAAAAAAAAAAAAAAAAAAAAAAAAAAAAAAAAAAAAAAAAAAAAAAAAAAAAAAAAAAAAAAAAAAAAAAAAAAAAAAAAAAAAAAAAAAAAAAAAAAAAAAAAAAAAAAAAAAAAAAAAAAAAAAAAAAAAAAAAAAAAAAAAAAAAAAAAAAAAAAAAAAAAAAAAAAAAAAAAAAAAAAAAAAAAAAAAAAAAAAAAAAAAAAAAAAAAAAAAAAAAAAAAAAAAAAAAAAAAAAAAAAAAAAAAAAAAAAAAAAAAAAAAAAAAAAAAAAAAAAAAAAAAAAAAAAAAAAAAAAAAAAAAAAAAAAAAAAAAAAAAAAAAAAAAAAAAAAAAAAAAAAAAAAAAAAAAAAAAAAAAAAAAAAAAAAAAAAAAAAAAAAAAAAAAAAAAAAAAAAAAAAAAAAAAAAAAAAAAAAAAAAAAAAAAAAAAAAAAAAAAAAAAAAAAAAAAAAAAAAAAAAAAAAAAAAAAAAAAAAAAAAAAAAAAAAAAAAAAAAAAAAAAAAAAAAAAAAAAAAAAAAAAAAAAAAAAAAAAAAAAAAAAAAAAAAAAAAAAAAAAAAAAAAAAAAAAAAAAAAAAAAAAAAAAAAAAAAAAAAAAAAAAAAAAAAAAAAAAAAAAAAAAAAAAAAAAAAAAAAAAAAAAAAAAAAAAAAAAAAAAAAAAAAAAAAAAAAAAAAAAAAAAAAAAAAAAAAAAAAAAAAAAAAAAAAAAAAAAAAAAAAAAAAAAAAAAAAAAAAAAAAAAAAAAAAAAAAAAAAAAAAAAAAAAAAAAAAAAAAAAAAAAAAAAAAAAAAAAAAAAAAAAAAAAAAAAAAAAAAAAAAAAAAAAAAAAAAAAAAAAAAAAAAAAAAAAAAAAAAAAAAAAAAAAAAAAAAAAAAAAAAAAAAAAAAAAAAAAAAAAAAAAAAAAAAAAAAAAAAAAAAAAAAAAAAAAAAAAAAAAAAAAAAAAAAAAAAAAAAAAAAAAAAAAAAAAAAAAAAAAAAAAAAAAAAAAAAAAAAAAAAAAAAAAAAAAAAAAAAAAAAAAAAAAAAAAAAAAAAAAAAAAAAAAAAAAAAAAAAAAAAAAAAAAAAAAAAAAAAAAAAAAAAAAAAAAAAAAAAAAAAAAAAAAAAAAAAAAAAAAAAAAAAAAAAAAAAAAAAAAAAAAAAAAAAAAAAAAAAAAAAAAAAAAAAAAAAAAAAAAAAAAAAAAAAAAAAAAAAAAAAAAAAAAAAAAAAAAAAAAAAAAAAAAAAAAAAAAAAAAAAAAAAAAAAAAAAAAAAAAAAAAAAAAAAAAAAAAAAAAAAAAAAAAAAAAAAAAAAAAAAAAAAAAAAAAAAAAAAAAAAAAAAAAAAAAAAAAAAAAAAAAAAAAAAAAAAAAAAAAAAAAAAAAAAAAAAAAAAAAAAAAAAAAAAAAAAAAAAAAAAAAAAAAAAAAAAAAAAAAAAAAAAAAAAAAAAAAAAAAAAAAAAAAAAAAAAAAAAAAAAAAAAAAAAAAAAAAAAAAAAAAAAAAAAAAAAAAAAAAAAAAAAAAAAAAAAAAAAAAAAAAAAAAAAAAAAAAAAAAAAAAAAAAAAAAAAAAAAAAAAAAAAAAAAAAAAAAAAAAAAAAAAAAAAAAAAAAAAAAAAAAAAAAAAAAAAAAAAAAAAAAAAAAAAAAAAAAAAAAAAAAAAAAAAAAAAAAAAAAAAAAAAAAAAAAAAAAAAAAAAAAAAAAAAAAAAAAAAAAAAAAAAAAAAAAAAAAAAAAAAAAAAAAAAAAAAAAAAAAAAAAAAAAAAAAAAAAAAAAAAAAAAAAAAAAAAAAAAAAAAAAAAAAAAAAAAAAAAAAAAAAAAAAAAAAAAAAAAAAAAAAAAAAAAAAAAAAAAAAAAAAAAAAAAAAAAAAAAAAAAAAAAAAAAAAAAAAAAAAAAAAAAAAAAAAAAAAAAAAAAAAAAAAAAAAAAAAAAAAAAAAAAAAAAAAAAAAAAAAAAAAAAAAAAAAAAAAAAAAAAAAAAAAAAAAAAAAAAAAAAAAAAAAAAAAAAAAAAAAAAAAAAAAAAAAAAAAAAAAAAAAAAAAAAAAAAAAAAAAAAAAAAAAAAAAAAAAAAAAAAAAAAAAAAAAAAAAAAAAAAAAAAAAAAAAAAAAAAAAAAAAAAAAAAAAAAAAAAAAAAAAAAAAAAAAAAAAAAAAAAAAAAAAAAAAAAAAAAAAAAAAAAAAAAAAAAAAAAAAAAAAAAAAAAAAAAAAAAAAAAAAAAAAAAAAAAAAAAAAAAAAAAAAAAAAAAAAAAAAAAAAAAAAAAAAAAAAAAAAAAAAAAAAAAAAAAAAAAAAAAAAAAAAAAAAAAAAAAAAAAAAAAAAAAAAAAAAAAAAAAAAAAAAAAAAAAAAAAAAAAAAAAAAAAAAAAAAAAAAAAAAAAAAAAAAAAAAAAAAAAAAAAAAAAAAAAAAAAAAAAAAAAAAAAAAAAAAAAAAAAAAAAAAAAAAAAAAAAAAAAAAAAAAAAAAAAAAAAAAAAAAAAAAAAAAAAAAAAAAAAAAAAAAAAAAAAAAAAAAAAAAAAAAAAAAAAAAAAAAAAAAAAAAAAAAAAAAAAAAAAAAAAAAAAAAAAAAAAAAAAAAAAAAAAAAAAAAAAAAAAAAAAAAAAAAAAAAAAAAAAAAAAAAAAAAAAAAAAAAAAAAAAAAAAAAAAAAAAAAAAAAAAAAAAAAAAAAAAAAAAAAAAAAAAAAAAAAAAAAAAAAAAAAAAAAAAAAAAAAAAAAAAAAAAAAAAAAAAAAAAAAAAAAAAAAAAAAAAAAAAAAAAAAAAAAAAAAAAAAAAAAAAAAAAAAAAAAAAAAAAAAAAAAAAAAAAAAAAAAAAAAAAAAAAAAAAAAAAAAAAAAAAAAAAAAAAAAAAAAAAAAAAAAAAAAAAAAAAAAAAAAAAAAAAAAAAAAAAAAAAAAAAAAAAAAAAAAAAAAAAAAAAAAAAAAAAAAAAAAAAAAAAAAAAAAAAAAAAAAAAAAAAAAAAAAAAAAAAAAAAAAAAAAAAAAAAAAAAAAAAAAAAAAAAAAAAAAAAAAAAAAAAAAAAAAAAAAAAAAAAAAAAAAAAAAAAAAAAAAAAAAAAAAAAAAAAAAAAAAAAAAAAAAAAAAAAAAAAAAAAAAAAAAAAAAAAAAAAAAAAAAAAAAAAAAAAAAAAAAAAAAAAAAAAAAAAAAAAAAAAAAAAAAAAAAAAAAAAAAAAAAAAAAAAAAAAAAAAAAAAAAAAAAAAAAAAAAAAAAAAAAAAAAAAAAAAAAAAAAAAAAAAAAAAAAAAAAAAAAAAAAAAAAAAAAAAAAAAAAAAAAAAAAAAAAAAAAAAAAAAAAAAAAAAAAAAAAAAAAAAAAAAAAAAAAAAAAAAAAAAAAAAAAAAAAAAAAAAAAAAAAAAAAAAAAAAAAAAAAAAAAAAAAAAAAAAAAAAAAAAAAAAAAAAAAAAAAAAAAAAAAAAAAAAAAAAAAAAAAAAAAAAAAAAAAAAAAAAAAAAAAAAAAAAAAAAAAAAAAAAAAAAAAAAAAAAAAAAAAAAAAAAAAAAAAAAAAAAAAAAAAAAAAAAAAAAAAAAAAAAAAAAAAAAAAAAAAAAAAAAAAAAAAAAAAAAAAAAAAAAAAAAAAAAAAAAAAAAAAAAAAAAAAAAAAAAAAAAAAAAAAAAAAAAAAAAAAAAAAAAAAAAAAAAAAAAAAAAAAAAAAAAAAAAAAAAAAAAAAAAAAAAAAAAAAAAAAAAAAAAAAAAAAAAAAAAAAAAAAAAAAAAAAAAAAAAAAAAAAAAAAAAAAAAAAAAAAAAAAAAAAAAAAAAAAAAAAAAAAAAAAAAAAAAAAAAAAAAAAAAAAAAAAAAAAAAAAAAAAAAAAAAAAAAAAAAAAAAAAAAAAAAAAAAAAAAAAAAAAAAAAAAAAAAAAAAAAAAAAAAAAAAAAAAAAAAAAAAAAAAAAAAAAAAAAAAAAAAAAAAAAAAAAAAAAAAAAAAAAAAAAAAAAAAAAAAAAAAAAAAAAAAAAAAAAAAAAAAAAAAAAAAAAAAAAAAAAAAAAAAAAAAAAAAAAAAAAAAAAAAAAAAAAAAAAAAAAAAAAAAAAAAAAAAAAAAAAAAAAAAAAAAAAAAAAAAAAAAAAAAAAAAAAAAAAAAAAAAAAAAAAAAAAAAAAAAAAAAAAAAAAAAAAAAAAAAAAAAAAAAAAAAAAAAAAAAAAAAAAAAAAAAAAAAAAAAAAAAAAAAAAAAAAAAAAAAAAAAAAAAAAAAAAAAAAAAAAAAAAAAAAAAAAAAAAAAAAAAAAAAAAAAAAAAAAAAAAAAAAAAAAAAAAAAAAAAAAAAAAAAAAAAAAAAAAAAAAAAAAAAAAAAAAAAAAAAAAAAAAAAAAAAAAAAAAAAAAAAAAAAAAAAAAAAAAAAAAAAAAAAAAAAAAAAAAAAAAAAAAAAAAAAAAAAAAAAAAAAAAAAAAAAAAAAAAAAAAAAAAAAAAAAAAAAAAAAAAAAAAAAAAAAAAAAAAAAAAAAAAAAAAAAAAAAAAAAAAAAAAAAAAAAAAAAAAAAAAAAAAAAAAAAAAAAAAAAAAAAAAAAAAAAAAAAAAAAAAAAAAAAAAAAAAAAAAAAAAAAAAAAAAAAAAAAAAAAAAAAAAAAAAAAAAAAAAAAAAAAAAAAAAAAAAAAAAAAAAAAAAAAAAAAAAAAAAAAAAAAAAAAAAAAAAAAAAAAAAAAAAAAAAAAAAAAAAAAAAAAAAAAAAAAAAAAAAAAAAAAAAAAAAAAAAAAAAAAAAAAAAAAAAAAAAAAAAAAAAAAAAAAAAAAAAAAAAAAAAAAAAAAAAAAAAAAAAAAAAAAAAAAAAAAAAAAAAAAAAAAAAAAAAAAAAAAAAAAAAAAAAAAAAAAAAAAAAAAAAAAAAAAAAAAAAAAAAAAAAAAAAAAAAAAAAAAAAAAAAAAAAAAAAAAAAAAAAAAAAAAAAAAAAAAAAAAAAAAAAAAAAAAAAAAAAAAAAAAAAAAAAAAAAAAAAAAAAAAAAAAAAAAAAAAAAAAAAAAAAAAAAAAAAAAAAAAAAAAAAAAAAAAAAAAAAAAAAAAAAAAAAAAAAAAAAAAAAAAAAAAAAAAAAAAAAAAAAAAAAAAAAAAAAAAAAAAAAAAAAAAAAAAAAAAAAAAAAAAAAAAAAAAAAAAAAAAAAAAAAAAAAAAAAAAAAAAAAAAAAAAAAAAAAAAAAAAAAAAAAAAAAAAAAAAAAAAAAAAAAAAAAAAAAAAAAAAAAAAAAAAAAAAAAAAAAAAAAAAAAAAAAAAAAAAAAAAAAAAAAAAAAAAAAAAAAAAAAAAAAAAAAAAAAAAAAAAAAAAAAAAAAAAAAAAAAAAAAAAAAAAAAAAAAAAAAAAAAAAAAAAAAAAAAAAAAAAAAAAAAAAAAAAAAAAAAAAAAAAAAAAAAAAAAAAAAAAAAAAAAAAAAAAAAAAAAAAAAAAAAAAAAAAAAAAAAAAAAAAAAAAAAAAAAAAAAAAAAAAAAAAAAAAAAAAAAAAAAAAAAAAAAAAAAAAAAAAAAAAAAAAAAAAAAAAAAAAAAAAAAAAAAAAAAAAAAAAAAAAAAAAAAAAAAAAAAAAAAAAAAAAAAAAAAAAAAAAAAAAAAAAAAAAAAAAAAAAAAAAAAAAAAAAAAAAAAAAAAAAAAAAAAAAAAAAAAAAAAAAAAAAAAAAAAAAAAAAAAAAAAAAAAAAAAAAAAAAAAAAAAAAAAAAAAAAAAAAAAAAAAAAAAAAAAAAAAAAAAAAAAAAAAAAAAAAAAAAAAAAAAAAAAAAAAAAAAAAAAAAAAAAAAAAAAAAAAAAAAAAAAAAAAAAAAAAAAAAAAAAAAAAAAAAAAAAAAAAAAAAAAAAAAAAAAAAAAAAAAAAAAAAAAAAAAAAAAAAAAAAAAAAAAAAAAAAAAAAAAAAAAAAAAAAAAAAAAAAAAAAAAAAAAAAAAAAAAAAAAAAAAAAAAAAAAAAAAAAAAAAAAAAAAAAAAAAAAAAAAAAAAAAAAAAAAAAAAAAAAAAAAAAAAAAAAAAAAAAAAAAAAAAAAAAAAAAAAAAAAAAAAAAAAAAAAAAAAAAAAAAAAAAAAAAAAAAAAAAAAAAAAAAAAAAAAAAAAAAAAAAAAAAAAAAAAAAAAAAAAAAAAAAAAAAAAAAAAAAAAAAAAAAAAAAAAAAAAAAAAAAAAAAAAAAAAAAAAAAAAAAAAAAAAAAAAAAAAAAAAAAAAAAAAAAAAAAAAAAAAAAAAAAAAAAAAAAAAAAAAAAAAAAAAAAAAAAAAAAAAAAAAAAAAAAAAAAAAAAAAAAAAAAAAAAAAAAAAAAAAAAAAAAAAAAAAAAAAAAAAAAAAAAAAAAAAAAAAAAAAAAAAAAAAAAAAAAAAAAAAAAAAAAAAAAAAAAAAAAAAAAAAAAAAAAAAAAAAAAAAAAAAAAAAAAAAAAAAAAAAAAAAAAAAAAAAAAAAAAAAAAAAAAAAAAAAAAAAAAAAAAAAAAAAAAAAAAAAAAAAAAAAAAAAAAAAAAAAAAAAAAAAAAAAAAAAAAAAAAAAAAAAAAAAAAAAAAAAAAAAAAAAAAAAAAAAAAAAAAAAAAAAAAAAAAAAAAAAAAAAAAAAAAAAAAAAAAAAAAAAAAAAAAAAAAAAAAAAAAAAAAAAAAAAAAAAAAAAAAAAAAAAAAAAAAAAAAAAAAAAAAAAAAAAAAAAAAAAAAAAAAAAAAAAAAAAAAAAAAAAAAAAAAAAAAAAAAAAAAAAAAAAAAAAAAAAAAAAAAAAAAAAAAAAAAAAAAAAAAAAAAAAAAAAAAAAAAAAAAAAAAAAAAAAAAAAAAAAAAAAAAAAAAAAAAAAAAAAAAAAAAAAAAAAAAAAAAAAAAAAAAAAAAAAAAAAAAAAAAAAAAAAAAAAAAAAAAAAAAAAAAAAAAAAAAAAAAAAAAAAAAAAAAAAAAAAAAAAAAAAAAAAAAAAAAAAAAAAAAAAAAAAAAAAAAAAAAAAAAAAAAAAAAAAAAAAAAAAAAAAAAAAAAAAAAAAAAAAAAAAAAAAAAAAAAAAAAAAAAAAAAAAAAAAAAAAAAAAAAAAAAAAAAAAAAAAAAAAAAAAAAAAAAAAAAAAAAAAAAAAAAAAAAAAAAAAAAAAAAAAAAAAAAAAAAAAAAAAAAAAAAAAAAAAAAAAAAAAAAAAAAAAAAAAAAAAAAAAAAAAAAAAAAAAAAAAAAAAAAAAAAAAAAAAAAAAAAAAAAAAAAAAAAAAAAAAAAAAAAAAAAAAAAAAAAAAAAAAAAAAAAAAAAAAAAAAAAAAAAAAAAAAAAAAAAAAAAAAAAAAAAAAAAAAAAAAAAAAAAAAAAAAAAAAAAAAAAAAAAAAAAAAAAAAAAAAAAAAAAAAAAAAAAAAAAAAAAAAAAAAAAAAAAAAAAAAAAAAAAAAAAAAAAAAAAAAAAAAAAAAAAAAAAAAAAAAAAAAAAAAAAAAAAAAAAAAAAAAAAAAAAAAAAAAAAAAAAAAAAAAAAAAAAAAAAAAAAAAAAAAAAAAAAAAAAAAAAAAAAAAAAAAAAAAAAAAAAAAAAAAAAAAAAAAAAAAAAAAAAAAAAAAAAAAAAAAAAAAAAAAAAAAAAAAAAAAAAAAAAAAAAAAAAAAAAAAAAAAAAAAAAAAAAAAAAAAAAAAAAAAAAAAAAAAAAAAAAAAAAAAAAAAAAAAAAAAAAAAAAAAAAAAAAAAAAAAAAAAAAAAAAAAAAAAAAAAAAAAAAAAAAAAAAAAAAAAAAAAAAAAAAAAAAAAAAAAAAAAAAAAAAAAAAAAAAAAAAAAAAAAAAAAAAAAAAAAAAAAAAAAAAAAAAAAAAAAAAAAAAAAAAAAAAAAAAAAAAAAAAAAAAAAAAAAAAAAAAAAAAAAAAAAAAAAAAAAAAAAAAAAAAAAAAAAAAAAAAAAAAAAAAAAAAAAAAAAAAAAAAAAAAAAAAAAAAAAAAAAAAAAAAAAAAAAAAAAAAAAAAAAAAAAAAAAAAAAAAAAAAAAAAAAAAAAAAAAAAAAAAAAAAAAAAAAAAAAAAAAAAAAAAAAAAAAAAAAAAAAAAAAAAAAAAAAAAAAAAAAAAAAAAAAAAAAAAAAAAAAAAAAAAAAAAAAAAAAAAAAAAAAAAAAAAAAAAAAAAAAAAAAAAAAAAAAAAAAAAAAAAAAAAAAAAAAAAAAAAAAAAAAAAAAAAAAAAAAAAAAAAAAAAAAAAAAAAAAAAAAAAAAAAAAAAAAAAAAAAAAAAAAAAAAAAAAAAAAAAAAAAAAAAAAAAAAAAAAAAAAAAAAAAAAAAAAAAAAAAAAAAAAAAAAAAAAAAAAAAAAAAAAAAAAAAAAAAAAAAAAAAAAAAAAAAAAAAAAAAAAAAAAAAAAAAAAAAAAAAAAAAAAAAAAAAAAAAAAAAAAAAAAAAAAAAAAAAAAAAAAAAAAAAAAAAAAAAAAAAAAAAAAAAAAAAAAAAAAAAAAAAAAAAAAAAAAAAAAAAAAAAAAAAAAAAAAAAAAAAAAAAAAAAAAAAAAAAAAAAAAAAAAAAAAAAAAAAAAAAAAAAAAAAAAAAAAAAAAAAAAAAAAAAAAAAAAAAAAAAAAAAAAAAAAAAAAAAAAAAAAAAAAAAAAAAAAAAAAAAAAAAAAAAAAAAAAAAAAAAAAAAAAAAAAAAAAAAAAAAAAAAAAAAAAAAAAAAAAAAAAAAAAAAAAAAAAAAAAAAAAAAAAAAAAAAAAAAAAAAAAAAAAAAAAAAAAAAAAAAAAAAAAAAAAAAAAAAAAAAAAAAAAAAAAAAAAAAAAAAAAAAAAAAAAAAAAAAAAAAAAAAAAAAAAAAAAAAAAAAAAAAAAAAAAAAAAAAAAAAAAAAAAAAAAAAAAAAAAAAAAAAAAAAAAAAAAAAAAAAAAAAAAAAAAAAAAAAAAAAAAAAAAAAAAAAAAAAAAAAAAAAAAAAAAAAAAAAAAAAAAAAAAAAAAAAAAAAAAAAAAAAAAAAAAAAAAAAAAAAAAAAAAAAAAAAAAAAAAAAAAAAAAAAAAAAAAAAAAAAAAAAAAAAAAAAAAAAAAAAAAAAAAAAAAAAAAAAAAAAAAAAAAAAAAAAAAAAAAAAAAAAAAAAAAAAAAAAAAAAAAAAAAAAAAAAAAAAAAAAAAAAAAAAAAAAAAAAAAAAAAAAAAAAAAAAAAAAAAAAAAAAAAAAAAAAAAAAAAAAAAAAAAAAAAAAAAAAAAAAAAAAAAAAAAAAAAAAAAAAAAAAAAAAAAAAAAAAAAAAAAAAAAAAAAAAAAAAAAAAAAAAAAAAAAAAAAAAAAAAAAAAAAAAAAAAAAAAAAAAAAAAAAAAAAAAAAAAAAAAAAAAAAAAAAAAAAAAAAAAAAAAAAAAAAAAAAAAAAAAAAAAAAAAAAAAAAAAAAAAAAAAAAAAAAAAAAAAAAAAAAAAAAAAAAAAAAAAAAAAAAAAAAAAAAAAAAAAAAAAAAAAAAAAAAAAAAAAAAAAAAAAAAAAAAAAAAAAAAAAAAAAAAAAAAAAAAAAAAAAAAAAAAAAAAAAAAAAAAAAAAAAAAAAAAAAAAAAAAAAAAAAAAAAAAAAAAAAAAAAAAAAAAAAAAAAAAAAAAAAAAAAAAAAAAAAAAAAAAAAAAAAAAAAAAAAAAAAAAAAAAAAAAAAAAAAAAAAAAAAAAAAAAAAAAAAAAAAAAAAAAAAAAAAAAAAAAAAAAAAAAAAAAAAAAAAAAAAAAAAAAAAAAAAAAAAAAAAAAAAAAAAAAAAAAAAAAAAAAAAAAAAAAAAAAAAAAAAAAAAAAAAAAAAAAAAAAAAAAAAAAAAAAAAAAAAAAAAAAAAAAAAAAAAAAAAAAAAAAAAAAAAAAAAAAAAAAAAAAAAAAAAAPZYQM6JmQhrrZ4BlkfoVom4MjaB3OKU1B1fYd/BYv2ZRkp01+zHd5JCmWjVRt+3zQK9V65AsS/D6gMHYQZO54UTEEw=</c2pa:manifest></metadata><style class="text-font-style fontImports" data-font-family="STIX Two Text">@font-face {font-family: 'STIX Two Text';src: url('https://fonts.napkin.ai/google-fonts/20250207/stix-two-text/stix-two-text_regular.ttf') format("truetype");font-weight: 400;font-style: normal;font-display: block;}@font-face {font-family: 'STIX Two Text';src: url('https://fonts.napkin.ai/google-fonts/20250207/stix-two-text/stix-two-text_700.ttf') format("truetype");font-weight: 700;font-style: normal;font-display: block;}</style><style class="text-font-style fontImports" data-font-family="Roboto">@font-face {font-family: 'Roboto';src: url('https://fonts.napkin.ai/google-fonts/20250207/roboto/roboto_regular.ttf') format("truetype");font-weight: 400;font-style: normal;font-display: block;}@font-face {font-family: 'Roboto';src: url('https://fonts.napkin.ai/google-fonts/20250207/roboto/roboto_700.ttf') format("truetype");font-weight: 700;font-style: normal;font-display: block;}</style><g id="items" style="isolation: isolate"><g id="blend" style="mix-blend-mode: normal"><g id="g-root-cp_1_text-1_1czwcyd35cm4s-fill" data-item-order="-332630" transform="translate(14, 92)"><g id="cp_1_text-1_1czwcyd35cm4s-fill-merged" stroke="none" fill="url(#gradient-b6ca78-375959094)" fill-opacity="1"><g><path d="M10 214 H118 V203 H112L130 185L148 203 H142 V214 H250 V178 H261 V184L279 166L261 148 V154 H250 V10 H10 V214"></path></g></g></g><g id="g-root-cp_1_text-1_1czwcyd35cm4s-stroke" data-item-order="-332630" transform="translate(14, 92)"><g id="cp_1_text-1_1czwcyd35cm4s-stroke" fill="none" stroke-linecap="round" stroke-linejoin="round" stroke-miterlimit="4" stroke="#2f3c3e" stroke-width="2" stroke-opacity="1"><g><path d="M 250 154L 250 10L 10 10L 10 154M 250 154L 261 154L 261 148L 279 166L 261 184L 261 178L 250 178L 250 214L 142 214L 142 203L 148 203L 130 185L 112 203L 118 203L 118 214L 10 214L 10 154M 250 154C 248.300003 137.899994 249.800003 121.599998 250 105.400002C 250.199997 89.800003 249.800003 74.300003 250 58.700001C 250.199997 42.5 250.300003 26.200001 250 10C 236.600006 10.9 223.100006 9.5 209.699997 10C 196.300003 10.5 182.699997 11.7 169.300003 10C 155.300003 8.2 140.800003 8 126.699997 10C 114.099998 11.8 101.099998 11.5 88.300003 10C 75.599998 8.5 62.599998 8.8 49.900002 10C 36.599998 11.3 23.200001 8.8 10 10C 9.8 27.6 10 45.099998 10 62.700001C 10 77.199997 9.2 91.699997 10 106.199997C 10.9 122.099998 10.2 138.100006 10 154M 250 154C 253.600006 153.600006 257.299988 154 261 154C 260.899994 152 260.399994 149.899994 261 148C 267.799988 153 273 159.899994 279 166C 273.5 172.5 266.5 177.600006 261 184C 261.100006 182 261.399994 180 261 178C 257.399994 177.5 253.600006 177.199997 250 178C 249.300003 190 249.100006 202 250 214C 238.300003 214.600006 226.5 215.199997 214.800003 214C 203.5 212.800003 191.899994 212.5 180.5 214C 167.800003 215.699997 154.800003 214.199997 142 214C 142.399994 210.399994 141.199997 206.600006 142 203C 144 203.100006 146 203.100006 148 203C 142.100006 196.899994 135.800003 191.199997 130 185C 124.400002 191.399994 117.5 196.600006 112 203C 114 202.800003 116.199997 203.800003 118 203C 116.900002 206.5 118 210.300003 118 214C 99.900002 215.699997 81.599998 214.800003 63.5 214C 45.700001 213.199997 27.799999 215.100006 10 214C 10.6 194 10.5 174 10 154"></path></g></g></g><g id="g-root-cp_2_text-2_mdltat35cm4t-fill" data-item-order="-332606" transform="translate(254, 92)"><g id="cp_2_text-2_mdltat35cm4t-fill-merged" stroke="none" fill="url(#gradient-d8d87c-459716256)" fill-opacity="1"><g><path d="M10 154 H21 V148L39 166L21 184 V178 H10 V214 H118 V225 H112L130 243L148 225 H142 V214 H250 V178 H261 V184L279 166L261 148 V154 H250 V10 H10 V154"></path></g></g></g><g id="g-root-cp_2_text-2_mdltat35cm4t-stroke" data-item-order="-332606" transform="translate(254, 92)"><g id="cp_2_text-2_mdltat35cm4t-stroke" fill="none" stroke-linecap="round" stroke-linejoin="round" stroke-miterlimit="4" stroke="#2f3c3e" stroke-width="2" stroke-opacity="1"><g><path d="M 250 142L 250 154L 261 154L 261 148L 279 166L 261 184L 261 178L 250 178L 250 214L 142 214L 118 214L 10 214L 10 178L 21 178L 21 184L 39 166L 21 148L 21 154L 10 154L 10 142M 250 154L 250 10L 10 10L 10 154M 250 142C 249.600006 146 249.100006 150.100006 250 154C 253.600006 153.399994 257.299988 154 261 154C 261 152 261.200012 150 261 148C 267.200012 153.800003 272.299988 160.800003 279 166C 272.899994 171.899994 267.200012 178.199997 261 184C 261.399994 182 260.700012 180 261 178C 257.299988 177.899994 253.600006 177.600006 250 178C 249.899994 190 251.5 202.100006 250 214C 233.5 212.800003 217 214.100006 200.5 214C 181 213.800003 161.5 214.300003 142 214C 134 213.899994 125.900002 212.600006 118 214C 100.900002 217.100006 83.199997 215.199997 65.800003 214C 47.299999 212.699997 28.6 214.600006 10 214C 9.7 202 10.6 190 10 178C 13.6 177.300003 17.5 179 21 178C 20.700001 180 21.4 182.100006 21 184C 27.5 178.600006 33.299999 172.300003 39 166C 33.900002 159.199997 26.5 154.5 21 148C 20.5 149.899994 21.4 152.100006 21 154C 17.4 154.800003 13.6 153.5 10 154C 10.2 150 9.2 145.899994 10 142M 250 154C 249.399994 129.800003 250.199997 105.599998 250 81.5C 249.800003 57.599998 249.899994 33.799999 250 10C 221.100006 9.5 192.100006 9.4 163.199997 10C 138.300003 10.5 113.199997 11.4 88.300003 10C 62.200001 8.6 36 12 10 10C 9.8 22.200001 8.7 34.5 10 46.599998C 11.2 58.099998 8.3 69.800003 10 81.199997C 12 94.099998 9.4 107.400002 10 120.400002C 10.5 131.600006 9 142.899994 10 154"></path></g></g></g><g id="g-root-cp_3_text-3_mdltat35cm4u-fill" data-item-order="-332584" transform="translate(494, 92)"><g id="cp_3_text-3_mdltat35cm4u-fill-merged" stroke="none" fill="url(#gradient-d0bb8d-425760269)" fill-opacity="1"><g><path d="M10 154 H21 V148L39 166L21 184 V178 H10 V214 H118 V225 H112L130 243L148 225 H142 V214 H250 V10 H10 V154"></path></g></g></g><g id="g-root-cp_3_text-3_mdltat35cm4u-stroke" data-item-order="-332584" transform="translate(494, 92)"><g id="cp_3_text-3_mdltat35cm4u-stroke" fill="none" stroke-linecap="round" stroke-linejoin="round" stroke-miterlimit="4" stroke="#2f3c3e" stroke-width="2" stroke-opacity="1"><g><path d="M 250 142L 250 214L 142 214L 142 225L 148 225L 130 243L 112 225L 118 225L 118 214L 10 214L 10 178L 21 178L 21 184L 39 166L 21 148L 21 154L 10 154L 10 142M 250 154L 250 10L 10 10L 10 154M 250 142C 249.399994 166 250.199997 190 250 214C 232.600006 215 215.100006 212.100006 197.699997 214C 179.300003 216 160.5 215.699997 142 214C 142.5 217.600006 141.800003 221.300003 142 225C 144 224.699997 146.100006 224.199997 148 225C 143.100006 231.899994 137.199997 238.5 130 243C 124.800003 236.300003 118.199997 230.800003 112 225C 114 225 116 224.699997 118 225C 117.599998 221.399994 117.5 217.600006 118 214C 82 213.600006 46 214.5 10 214C 11.9 202.100006 8.3 189.899994 10 178C 13.7 178.300003 17.6 179.300003 21 178C 21.4 180 21.1 182 21 184C 26.200001 177.300003 34.099998 173 39 166C 33.200001 159.800003 27.9 153 21 148C 21.299999 150 20.5 152.100006 21 154C 17.299999 154.100006 13.7 154.300003 10 154C 10.1 150 11.5 145.699997 10 142M 250 154C 249.199997 127.699997 249.199997 101.300003 250 74.900002C 250.600006 53.299999 250.800003 31.6 250 10C 225.199997 10.1 200.399994 10.7 175.600006 10C 150.199997 9.3 124.699997 9.5 99.300003 10C 69.599998 10.5 39.799999 9 10 10C 9.9 21.6 11.4 33.200001 10 44.599998C 8.4 57.700001 11.7 71 10 84C 8.5 95.400002 11.5 107 10 118.300003C 8.4 130.100006 10.3 142.100006 10 154"></path></g></g></g><g id="g-root-cp_6_text-6_hyes9h35cjrb-fill" data-item-order="-332560" transform="translate(14, 267)"><g id="cp_6_text-6_hyes9h35cjrb-fill-merged" stroke="none" fill="url(#gradient-a3b9c8-60967956)" fill-opacity="1"><g><path d="M250 243 H10 V39 H118 V28 H112L130 10L148 28 H142 V39 H250 V75 H239 V69L221 87L239 105 V99 H250 V243"></path></g></g></g><g id="g-root-cp_6_text-6_hyes9h35cjrb-stroke" data-item-order="-332560" transform="translate(14, 267)"><g id="cp_6_text-6_hyes9h35cjrb-stroke" fill="none" stroke-linecap="round" stroke-linejoin="round" stroke-miterlimit="4" stroke="#2f3c3e" stroke-width="2" stroke-opacity="1"><g><path d="M 250 111L 250 99L 239 99L 239 105L 221 87L 239 69L 239 75L 250 75L 250 39L 142 39L 142 28L 148 28L 130 10L 112 28L 118 28L 118 39L 10 39L 10 111M 250 111L 250 183M 10 183L 10 111M 250 183L 250 243L 10 243L 10 183M 250 111C 249.5 107 250.300003 103 250 99C 246.300003 98.800003 242.399994 97.599998 239 99C 238.899994 101 239.100006 103 239 105C 233.699997 98.400002 227.699997 92.199997 221 87C 227.100006 81.099998 232.199997 74.099998 239 69C 239.100006 71 239.199997 73 239 75C 242.600006 75.400002 246.5 74 250 75C 248.800003 63.099998 248.399994 50.900002 250 39C 236.899994 39.099998 223.899994 40.099998 210.800003 39C 200.399994 38.099998 189.699997 37.299999 179.399994 39C 167.100006 41.099998 154.399994 39.900002 142 39C 142.5 35.400002 141.899994 31.700001 142 28C 144 28 146 28.4 148 28C 143 21.200001 136.199997 15.700001 130 10C 123 14.9 117 21.1 112 28C 114 27.700001 116 27.6 118 28C 118.400002 31.6 117.300003 35.400002 118 39C 82 37.5 46 38.400002 10 39C 12 51.200001 11 63.700001 10 76C 9 87.699997 10.5 99.400002 10 111M 250 111C 251.399994 135 249.899994 159 250 183M 10 183C 10.4 159 9 135 10 111M 250 183C 250.399994 203 249.5 223 250 243C 229.199997 241.399994 208.300003 242.800003 187.5 243C 165.800003 243.300003 144 241.100006 122.400002 243C 104.199997 244.600006 85.900002 243.5 67.699997 243C 48.5 242.399994 29.200001 242.399994 10 243C 12 223.100006 11.4 202.899994 10 183"></path></g></g></g><g id="g-root-cp_5_text-5_dila5135ckjk-fill" data-item-order="-332534" transform="translate(225, 296)"><g id="cp_5_text-5_dila5135ckjk-fill-merged" stroke="none" fill="url(#gradient-b8bdb8-413735139)" fill-opacity="1"><g><path d="M279 214 H39 V70 H28 V76L10 58L28 40 V46 H39 V10 H279 V46 H268 V40L250 58L268 76 V70 H279 V214"></path></g></g></g><g id="g-root-cp_5_text-5_dila5135ckjk-stroke" data-item-order="-332534" transform="translate(225, 296)"><g id="cp_5_text-5_dila5135ckjk-stroke" fill="none" stroke-linecap="round" stroke-linejoin="round" stroke-miterlimit="4" stroke="#2f3c3e" stroke-width="2" stroke-opacity="1"><g><path d="M 39 82L 39 70L 28 70L 28 76L 10 58L 28 40L 28 46L 39 46L 39 10L 279 10L 279 46L 268 46L 268 40L 250 58L 268 76L 268 70L 279 70L 279 82M 279 82L 279 154M 39 154L 39 82M 279 154L 279 214L 39 214L 39 154M 39 82C 39.099998 78 38.799999 74 39 70C 35.299999 69.599998 31.700001 69.900002 28 70C 28.700001 71.900002 27.6 74 28 76C 21 71.199997 15.4 64.5 10 58C 16.299999 52.299999 22.6 46.599998 28 40C 28.299999 42 28.5 44 28 46C 31.5 47.099998 35.299999 46 39 46C 37.700001 34.099998 39.099998 22 39 10C 57.299999 8.6 75.599998 11.1 93.900002 10C 116.300003 8.7 138.699997 10.6 161.100006 10C 179.300003 9.5 197.600006 8.8 215.800003 10C 236.800003 11.4 257.899994 9.4 279 10C 279 22 279.399994 34 279 46C 275.399994 45.299999 271.600006 46.900002 268 46C 267.799988 44 268.100006 42 268 40C 262.5 46.400002 255.899994 51.900002 250 58C 257.200012 62.5 261.399994 70.699997 268 76C 268 74 267.899994 72 268 70C 271.600006 69.599998 275.399994 69.099998 279 70C 278.899994 74 279.100006 78 279 82M 279 82C 280.100006 106 277.799988 130 279 154M 39 154C 40.700001 130.100006 39.5 106 39 82M 279 154C 277.100006 173.899994 278 194 279 214C 260.899994 212.800003 242.600006 216 224.600006 214C 204.100006 211.800003 183.300003 215.100006 162.699997 214C 140.399994 212.800003 118.099998 213.100006 95.800003 214C 76.900002 214.699997 57.900002 213.100006 39 214C 38.900002 194 38.299999 174 39 154"></path></g></g></g><g id="g-root-cp_4_text-4_4my9w535clc9-fill" data-item-order="-332508" transform="translate(465, 296)"><defs><linearGradient id="gradient-b6ca78-375959094" x2="0" y2="1"><stop offset="0" stop-color="#bfd284"></stop><stop offset="1" stop-color="#adc26c"></stop></linearGradient><linearGradient id="gradient-d8d87c-459716256" x2="0" y2="1"><stop offset="0" stop-color="#e4e495"></stop><stop offset="1" stop-color="#cbcb63"></stop></linearGradient><linearGradient id="gradient-d0bb8d-425760269" x2="0" y2="1"><stop offset="0" stop-color="#dfcda5"></stop><stop offset="1" stop-color="#c1a974"></stop></linearGradient><linearGradient id="gradient-a3b9c8-60967956" x2="0" y2="1"><stop offset="0" stop-color="#b6c9d6"></stop><stop offset="1" stop-color="#8fa8b9"></stop></linearGradient><linearGradient id="gradient-b8bdb8-413735139" x2="0" y2="1"><stop offset="0" stop-color="#cfd3cf"></stop><stop offset="1" stop-color="#a1a6a1"></stop></linearGradient><linearGradient id="gradient-c4b89d-115822982" x2="0" y2="1"><stop offset="0" stop-color="#d4cab2"></stop><stop offset="1" stop-color="#b4a687"></stop></linearGradient></defs><g id="cp_4_text-4_4my9w535clc9-fill-merged" stroke="none" fill="url(#gradient-c4b89d-115822982)" fill-opacity="1"><g><path d="M279 214 H39 V70 H28 V76L10 58L28 40 V46 H39 V10 H147 V21 H141L159 39L177 21 H171 V10 H279 V214"></path></g></g></g><g id="g-root-cp_4_text-4_4my9w535clc9-stroke" data-item-order="-332508" transform="translate(465, 296)"><g id="cp_4_text-4_4my9w535clc9-stroke" fill="none" stroke-linecap="round" stroke-linejoin="round" stroke-miterlimit="4" stroke="#2f3c3e" stroke-width="2" stroke-opacity="1"><g><path d="M 279 142L 279 214L 39 214L 39 142M 279 82L 279 10L 171 10L 171 21L 177 21L 159 39L 141 21L 147 21L 147 10L 39 10L 39 46L 28 46L 28 40L 10 58L 28 76L 28 70L 39 70L 39 82M 279 154L 279 82M 39 154L 39 82M 279 142C 279.399994 166 279.399994 190 279 214C 257 213.800003 235 212.699997 213.100006 214C 194.199997 215.100006 175.199997 214.399994 156.300003 214C 136.600006 213.600006 116.900002 214.300003 97.199997 214C 77.800003 213.699997 58.400002 215.199997 39 214C 39.900002 202.699997 38.799999 191.399994 39 180.100006C 39.200001 167.399994 39.400002 154.699997 39 142M 279 82C 279.600006 58 280.700012 33.900002 279 10C 266.100006 10.5 253.199997 10 240.300003 10C 228.5 10 216.600006 11.2 204.899994 10C 193.600006 8.9 182.300003 9.4 171 10C 171.399994 13.7 171.100006 17.299999 171 21C 172.899994 21.6 175.100006 20.299999 177 21C 171.399994 27.4 165.699997 33.799999 159 39C 153.300003 32.700001 146.800003 27.200001 141 21C 143 21.4 145.100006 21.700001 147 21C 146.699997 17.299999 147.899994 13.5 147 10C 130.300003 9.8 113.599998 11.2 96.900002 10C 77.599998 8.6 58.299999 9.9 39 10C 38.5 22 39.5 34 39 46C 35.400002 45.5 31.4 47.400002 28 46C 28.700001 44.099998 28.1 42 28 40C 22.299999 46.299999 16.9 53 10 58C 16 64 21.799999 70.300003 28 76C 28.1 74 28 72 28 70C 31.700001 70.199997 35.299999 70 39 70C 39.200001 74 38.400002 78.099998 39 82M 279 154C 280.600006 130.100006 278.600006 106 279 82M 39 154C 38.700001 130 37.5 105.900002 39 82"></path></g></g></g><g id="g-root-tx_settimer_18lya3935clxg-fill" data-item-order="0" transform="translate(50, 164)"><g id="tx_settimer_18lya3935clxg-fill-merged" stroke="none" fill="#2f3c3e" fill-opacity="1"><g><text style="font: 20px &quot;Roboto&quot;, sans-serif; white-space: pre;" transform="translate(10, 22)" font-size="20px" font-family="'Roboto', sans-serif"><tspan x="2" y="12" dominant-baseline="ideographic">Set Timer</tspan></text></g></g></g><g id="g-root-tx_settimer_18lya3935clxg-stroke" data-item-order="0" transform="translate(50, 164)"></g><g id="g-root-tx_pickplac_mfh8k535cl5b-fill" data-item-order="0" transform="translate(290, 164)"><g id="tx_pickplac_mfh8k535cl5b-fill-merged" stroke="none" fill="#2f3c3e" fill-opacity="1"><g><text style="font: 20px &quot;Roboto&quot;, sans-serif; white-space: pre;" transform="translate(10, 22)" font-size="20px" font-family="'Roboto', sans-serif"><tspan x="2" y="12" dominant-baseline="ideographic">Pick Place</tspan></text></g></g></g><g id="g-root-tx_pickplac_mfh8k535cl5b-stroke" data-item-order="0" transform="translate(290, 164)"></g><g id="g-root-tx_writewit_dju8b935cmpu-fill" data-item-order="0" transform="translate(530, 164)"><g id="tx_writewit_dju8b935cmpu-fill-merged" stroke="none" fill="#2f3c3e" fill-opacity="1"><g><text style="font: 20px &quot;Roboto&quot;, sans-serif; white-space: pre;" transform="translate(10, 34)" font-size="20px" font-family="'Roboto', sans-serif"><tspan x="2" y="0" dominant-baseline="ideographic">Write Without </tspan><tspan x="2" y="24" dominant-baseline="ideographic">Editing</tspan></text></g></g></g><g id="g-root-tx_writewit_dju8b935cmpu-stroke" data-item-order="0" transform="translate(530, 164)"></g><g id="g-root-tx_allocate_zqb9ud35cmq5-fill" data-item-order="0" transform="translate(50, 200)"><g id="tx_allocate_zqb9ud35cmq5-fill-merged" stroke="none" fill="#2f3c3e" fill-opacity="1"><g><text style="font: 15px &quot;Roboto&quot;, sans-serif; white-space: pre;" transform="translate(10, 28)" font-size="15px" font-family="'Roboto', sans-serif"><tspan x="2" y="0" dominant-baseline="ideographic">Allocate a specific time </tspan><tspan x="2" y="18" dominant-baseline="ideographic">for the dump.</tspan></text></g></g></g><g id="g-root-tx_allocate_zqb9ud35cmq5-stroke" data-item-order="0" transform="translate(50, 200)"></g><g id="g-root-tx_chooseas_qvaqol35cl4w-fill" data-item-order="0" transform="translate(290, 200)"><g id="tx_chooseas_qvaqol35cl4w-fill-merged" stroke="none" fill="#2f3c3e" fill-opacity="1"><g><text style="font: 15px &quot;Roboto&quot;, sans-serif; white-space: pre;" transform="translate(10, 28)" font-size="15px" font-family="'Roboto', sans-serif"><tspan x="2" y="0" dominant-baseline="ideographic">Choose a single location </tspan><tspan x="2" y="18" dominant-baseline="ideographic">for writing.</tspan></text></g></g></g><g id="g-root-tx_chooseas_qvaqol35cl4w-stroke" data-item-order="0" transform="translate(290, 200)"></g><g id="g-root-tx_3_hznqfp35clxl-fill" data-item-order="0" transform="translate(530, 128)"><g id="tx_3_hznqfp35clxl-fill-merged" stroke="none" fill="#2f3c3e" fill-opacity="1"><g><text style="font: 20px &quot;Roboto&quot;, sans-serif; white-space: pre;" transform="translate(17.61669921875, 22)" font-size="20px" font-family="'Roboto', sans-serif"><tspan x="-5.62" y="12" dominant-baseline="ideographic">3</tspan></text></g></g></g><g id="g-root-tx_3_hznqfp35clxl-stroke" data-item-order="0" transform="translate(530, 128)"></g><g id="g-root-tx_capturea_dju8b935cmpv-fill" data-item-order="0" transform="translate(530, 224)"><g id="tx_capturea_dju8b935cmpv-fill-merged" stroke="none" fill="#2f3c3e" fill-opacity="1"><g><text style="font: 15px &quot;Roboto&quot;, sans-serif; white-space: pre;" transform="translate(10, 28)" font-size="15px" font-family="'Roboto', sans-serif"><tspan x="2" y="0" dominant-baseline="ideographic">Capture all thoughts </tspan><tspan x="2" y="18" dominant-baseline="ideographic">without self-censorship.</tspan></text></g></g></g><g id="g-root-tx_capturea_dju8b935cmpv-stroke" data-item-order="0" transform="translate(530, 224)"></g><g id="g-root-tx_2_vb48t135ckcm-fill" data-item-order="0" transform="translate(290, 128)"><g id="tx_2_vb48t135ckcm-fill-merged" stroke="none" fill="#2f3c3e" fill-opacity="1"><g><text style="font: 20px &quot;Roboto&quot;, sans-serif; white-space: pre;" transform="translate(17.61669921875, 22)" font-size="20px" font-family="'Roboto', sans-serif"><tspan x="-5.62" y="12" dominant-baseline="ideographic">2</tspan></text></g></g></g><g id="g-root-tx_2_vb48t135ckcm-stroke" data-item-order="0" transform="translate(290, 128)"></g><g id="g-root-tx_1_1d1rs7p35cl57-fill" data-item-order="0" transform="translate(50, 128)"><g id="tx_1_1d1rs7p35cl57-fill-merged" stroke="none" fill="#2f3c3e" fill-opacity="1"><g><text style="font: 20px &quot;Roboto&quot;, sans-serif; white-space: pre;" transform="translate(17.61669921875, 22)" font-size="20px" font-family="'Roboto', sans-serif"><tspan x="-5.62" y="12" dominant-baseline="ideographic">1</tspan></text></g></g></g><g id="g-root-tx_1_1d1rs7p35cl57-stroke" data-item-order="0" transform="translate(50, 128)"></g><g id="g-root-tx_minddump_74rrp35cm4i-fill" data-item-order="0" transform="translate(265.599609375, 38)"><g id="tx_minddump_74rrp35cm4i-fill-merged" stroke="none" fill="#2f3c3e" fill-opacity="1"><g><text style="font: bold 25px &quot;STIX Two Text&quot;, serif; white-space: pre;" transform="translate(118.400390625, 25)" font-weight="bold" font-size="25px" font-family="'STIX Two Text', serif"><tspan x="-106.4" y="12.75" dominant-baseline="ideographic">Mind Dump Cycle</tspan></text></g></g></g><g id="g-root-tx_minddump_74rrp35cm4i-stroke" data-item-order="0" transform="translate(265.599609375, 38)"></g><g id="g-root-tx_6_4otp5h35ckcs-fill" data-item-order="0" transform="translate(50, 332)"><g id="tx_6_4otp5h35ckcs-fill-merged" stroke="none" fill="#2f3c3e" fill-opacity="1"><g><text style="font: 20px &quot;Roboto&quot;, sans-serif; white-space: pre;" transform="translate(17.61669921875, 22)" font-size="20px" font-family="'Roboto', sans-serif"><tspan x="-5.62" y="12" dominant-baseline="ideographic">6</tspan></text></g></g></g><g id="g-root-tx_6_4otp5h35ckcs-stroke" data-item-order="0" transform="translate(50, 332)"></g><g id="g-root-tx_5_1lynqmt35cmiv-fill" data-item-order="0" transform="translate(290, 332)"><g id="tx_5_1lynqmt35cmiv-fill-merged" stroke="none" fill="#2f3c3e" fill-opacity="1"><g><text style="font: 20px &quot;Roboto&quot;, sans-serif; white-space: pre;" transform="translate(17.61669921875, 22)" font-size="20px" font-family="'Roboto', sans-serif"><tspan x="-5.62" y="12" dominant-baseline="ideographic">5</tspan></text></g></g></g><g id="g-root-tx_5_1lynqmt35cmiv-stroke" data-item-order="0" transform="translate(290, 332)"></g><g id="g-root-tx_4_1lynqmt35cmiy-fill" data-item-order="0" transform="translate(530, 332)"><g id="tx_4_1lynqmt35cmiy-fill-merged" stroke="none" fill="#2f3c3e" fill-opacity="1"><g><text style="font: 20px &quot;Roboto&quot;, sans-serif; white-space: pre;" transform="translate(17.61669921875, 22)" font-size="20px" font-family="'Roboto', sans-serif"><tspan x="-5.62" y="12" dominant-baseline="ideographic">4</tspan></text></g></g></g><g id="g-root-tx_4_1lynqmt35cmiy-stroke" data-item-order="0" transform="translate(530, 332)"></g><g id="g-root-tx_sortinto_9071135cl51-fill" data-item-order="0" transform="translate(50, 368)"><g id="tx_sortinto_9071135cl51-fill-merged" stroke="none" fill="#2f3c3e" fill-opacity="1"><g><text style="font: 20px &quot;Roboto&quot;, sans-serif; white-space: pre;" transform="translate(10, 22)" font-size="20px" font-family="'Roboto', sans-serif"><tspan x="2" y="12" dominant-baseline="ideographic">Sort Into Piles</tspan></text></g></g></g><g id="g-root-tx_sortinto_9071135cl51-stroke" data-item-order="0" transform="translate(50, 368)"></g><g id="g-root-tx_stopwhen_1lynqmt35cmiw-fill" data-item-order="0" transform="translate(290, 368)"><g id="tx_stopwhen_1lynqmt35cmiw-fill-merged" stroke="none" fill="#2f3c3e" fill-opacity="1"><g><text style="font: 20px &quot;Roboto&quot;, sans-serif; white-space: pre;" transform="translate(10, 34)" font-size="20px" font-family="'Roboto', sans-serif"><tspan x="2" y="0" dominant-baseline="ideographic">Stop When Timer </tspan><tspan x="2" y="24" dominant-baseline="ideographic">Ends</tspan></text></g></g></g><g id="g-root-tx_stopwhen_1lynqmt35cmiw-stroke" data-item-order="0" transform="translate(290, 368)"></g><g id="g-root-tx_ceasewri_1lynqmt35cmix-fill" data-item-order="0" transform="translate(290, 428)"><g id="tx_ceasewri_1lynqmt35cmix-fill-merged" stroke="none" fill="#2f3c3e" fill-opacity="1"><g><text style="font: 15px &quot;Roboto&quot;, sans-serif; white-space: pre;" transform="translate(10, 28)" font-size="15px" font-family="'Roboto', sans-serif"><tspan x="2" y="0" dominant-baseline="ideographic">Cease writing when the </tspan><tspan x="2" y="18" dominant-baseline="ideographic">timer rings.</tspan></text></g></g></g><g id="g-root-tx_ceasewri_1lynqmt35cmix-stroke" data-item-order="0" transform="translate(290, 428)"></g><g id="g-root-tx_organize_9071135cl52-fill" data-item-order="0" transform="translate(50, 404)"><g id="tx_organize_9071135cl52-fill-merged" stroke="none" fill="#2f3c3e" fill-opacity="1"><g><text style="font: 15px &quot;Roboto&quot;, sans-serif; white-space: pre;" transform="translate(10, 28)" font-size="15px" font-family="'Roboto', sans-serif"><tspan x="2" y="0" dominant-baseline="ideographic">Organize thoughts into </tspan><tspan x="2" y="18" dominant-baseline="ideographic">actionable categories.</tspan></text></g></g></g><g id="g-root-tx_organize_9071135cl52-stroke" data-item-order="0" transform="translate(50, 404)"></g><g id="g-root-tx_continue_1hjgplh35ck5g-fill" data-item-order="0" transform="translate(530, 404)"><g id="tx_continue_1hjgplh35ck5g-fill-merged" stroke="none" fill="#2f3c3e" fill-opacity="1"><g><text style="font: 15px &quot;Roboto&quot;, sans-serif; white-space: pre;" transform="translate(10, 28)" font-size="15px" font-family="'Roboto', sans-serif"><tspan x="2" y="0" dominant-baseline="ideographic">Continue writing even </tspan><tspan x="2" y="18" dominant-baseline="ideographic">after pauses.</tspan></text></g></g></g><g id="g-root-tx_continue_1hjgplh35ck5g-stroke" data-item-order="0" transform="translate(530, 404)"></g><g id="g-root-tx_keepgoin_1hjgplh35ck5f-fill" data-item-order="0" transform="translate(530, 368)"><g id="tx_keepgoin_1hjgplh35ck5f-fill-merged" stroke="none" fill="#2f3c3e" fill-opacity="1"><g><text style="font: 20px &quot;Roboto&quot;, sans-serif; white-space: pre;" transform="translate(10, 22)" font-size="20px" font-family="'Roboto', sans-serif"><tspan x="2" y="12" dominant-baseline="ideographic">Keep Going</tspan></text></g></g></g><g id="g-root-tx_keepgoin_1hjgplh35ck5f-stroke" data-item-order="0" transform="translate(530, 368)"></g></g></g></svg>